HIERARCHY
ROOT Hips
{
	OFFSET 0.000000 0.000000 0.000000
	CHANNELS 6 Xposition Yposition Zposition Zrotation Yrotation Xrotation 
	JOINT LHipJoint
	{
		OFFSET 0.000000 0.000000 0.000000
		CHANNELS 3 Zrotation Yrotation Xrotation
		JOINT LeftUpLeg
		{
			OFFSET 1.363060 -1.794630 0.839290
			CHANNELS 3 Zrotation Yrotation Xrotation
			JOINT LeftLeg
			{
				OFFSET 2.448110 -6.726130 0.000000
				CHANNELS 3 Zrotation Yrotation Xrotation
				JOINT LeftFoot
				{
					OFFSET 2.562200 -7.039590 0.000000
					CHANNELS 3 Zrotation Yrotation Xrotation
					JOINT LeftToeBase
					{
						OFFSET 0.157640 -0.433110 2.322550
						CHANNELS 3 Zrotation Yrotation Xrotation
						End Site
						{
							OFFSET 0.000000 0.000000 0.000000
						}
					}
				}
			}
		}
	}
	JOINT RHipJoint
	{
		OFFSET 0.000000 0.000000 0.000000
		CHANNELS 3 Zrotation Yrotation Xrotation
		JOINT RightUpLeg
		{
			OFFSET -1.305520 -1.794630 0.839290
			CHANNELS 3 Zrotation Yrotation Xrotation
			JOINT RightLeg
			{
				OFFSET -2.542530 -6.985550 0.000000
				CHANNELS 3 Zrotation Yrotation Xrotation
				JOINT RightFoot
				{
					OFFSET -2.568260 -7.056230 0.000000
					CHANNELS 3 Zrotation Yrotation Xrotation
					JOINT RightToeBase
					{
						OFFSET -0.164730 -0.452590 2.363150
						CHANNELS 3 Zrotation Yrotation Xrotation
						End Site
						{
							OFFSET 0.000000 0.000000 0.000000
						}
					}
				}
			}
		}
	}
	JOINT LowerBack
	{
		OFFSET 0.000000 0.000000 0.000000
		CHANNELS 3 Zrotation Yrotation Xrotation
		JOINT Spine
		{
			OFFSET 0.028270 2.035590 -0.193380
			CHANNELS 3 Zrotation Yrotation Xrotation
			JOINT Spine1
			{
				OFFSET 0.056720 2.048850 -0.042750
				CHANNELS 3 Zrotation Yrotation Xrotation
				JOINT Neck
				{
					OFFSET 0.000000 0.000000 0.000000
					CHANNELS 3 Zrotation Yrotation Xrotation
					JOINT Neck1
					{
						OFFSET -0.054170 1.746240 0.172020
						CHANNELS 3 Zrotation Yrotation Xrotation
						JOINT Head
						{
							OFFSET 0.104070 1.761360 -0.123970
							CHANNELS 3 Zrotation Yrotation Xrotation
							End Site
							{
								OFFSET 0.000000 0.000000 0.000000
							}
						}
					}
				}
				JOINT LeftShoulder
				{
					OFFSET 0.000000 0.000000 0.000000
					CHANNELS 3 Zrotation Yrotation Xrotation
					JOINT LeftArm
					{
						OFFSET 3.362410 1.200890 -0.311210
						CHANNELS 3 Zrotation Yrotation Xrotation
						JOINT LeftForeArm
						{
							OFFSET 4.983000 -0.000000 -0.000000
							CHANNELS 3 Zrotation Yrotation Xrotation
							JOINT LeftHand
							{
								OFFSET 3.483560 -0.000000 -0.000000
								CHANNELS 3 Zrotation Yrotation Xrotation
								JOINT LeftFingerBase
								{
									OFFSET 0.000000 0.000000 0.000000
									CHANNELS 3 Zrotation Yrotation Xrotation
									JOINT LeftHandIndex1
									{
										OFFSET 0.715260 -0.000000 -0.000000
										CHANNELS 3 Zrotation Yrotation Xrotation
										End Site
										{
											OFFSET 0.000000 0.000000 0.000000
										}
									}
								}
								JOINT LThumb
								{
									OFFSET 0.000000 0.000000 0.000000
									CHANNELS 3 Zrotation Yrotation Xrotation
									End Site
									{
										OFFSET 0.000000 0.000000 0.000000
									}
								}
							}
						}
					}
				}
				JOINT RightShoulder
				{
					OFFSET 0.000000 0.000000 0.000000
					CHANNELS 3 Zrotation Yrotation Xrotation
					JOINT RightArm
					{
						OFFSET -3.136600 1.374050 -0.404650
						CHANNELS 3 Zrotation Yrotation Xrotation
						JOINT RightForeArm
						{
							OFFSET -5.241900 -0.000000 -0.000000
							CHANNELS 3 Zrotation Yrotation Xrotation
							JOINT RightHand
							{
								OFFSET -3.444170 -0.000000 -0.000000
								CHANNELS 3 Zrotation Yrotation Xrotation
								JOINT RightFingerBase
								{
									OFFSET 0.000000 0.000000 0.000000
									CHANNELS 3 Zrotation Yrotation Xrotation
									JOINT RightHandIndex1
									{
										OFFSET -0.622530 -0.000000 -0.000000
										CHANNELS 3 Zrotation Yrotation Xrotation
										End Site
										{
											OFFSET 0.000000 0.000000 0.000000
										}
									}
								}
								JOINT RThumb
								{
									OFFSET 0.000000 0.000000 0.000000
									CHANNELS 3 Zrotation Yrotation Xrotation
									End Site
									{
										OFFSET 0.000000 0.000000 0.000000
									}
								}
							}
						}
					}
				}
			}
		}
	}
}
MOTION
Frames: 8
Frame Time: 0.008333
0.938110 18.468925 8.510716 -12.114222 -1.617344 13.828722 7.701212 4.447696 0.289238 -12.381989 -27.714222 1.470725 -3.242084 -0.764597 1.653468 -11.260720 34.706523 -12.691684 0.051700 1.466900 4.034500 1.394910 -4.551901 2.200167 20.104228 27.613635 -4.142187 3.480072 -1.348937 4.190618 8.922391 -27.479426 -4.301626 -0.032400 -1.161600 3.193600 -4.350980 3.143758 4.483488 35.453713 3.959180 0.830725 -13.856836 -1.827850 -17.483693 -15.958672 -9.599089 -21.071466 11.775498 -11.782010 28.364521 2.025000 -4.440800 8.878200 -8.141053 -7.432644 -0.145244 -86.507117 -20.421310 50.022128 48.498619 -45.028775 -27.969121 -0.871783 0.814035 34.516005 40.404217 -16.074548 -13.761200 -7.125000 0.000000 0.000000 9.000700 9.183400 -7.545100 6.424252 9.604578 4.021007 71.204648 37.158865 59.025128 -56.229053 48.507558 -32.186201 0.313632 0.698379 44.120380 -7.958934 -60.940553 6.796300 7.125000 0.000000 0.000000 84.664700 74.503700 100.483900 
0.938321 18.465140 8.520180 -12.145614 -1.235823 13.765512 7.727246 4.462634 0.288042 -12.380363 -27.921293 1.601700 -3.244329 -0.809138 1.540067 -11.239794 34.645464 -12.514286 0.047700 1.409500 3.876300 1.417065 -4.556843 2.223996 20.181769 27.469353 -4.069610 3.489733 -1.344290 4.194408 8.987892 -27.640230 -4.556022 -0.030700 -1.130600 3.108200 -4.445372 3.040420 4.337447 35.756245 3.783215 0.992446 -13.829794 -1.908255 -17.517952 -16.192784 -9.598207 -21.015596 11.980859 -11.787811 28.378463 2.099500 -4.425100 8.920100 -8.133003 -7.432048 -0.143175 -86.742238 -20.382323 49.938946 48.498346 -45.012499 -27.955777 -0.874624 0.822825 34.601465 40.654802 -16.039375 -13.854900 -7.125000 0.000000 0.000000 9.169700 9.156400 -7.695600 6.397223 9.607659 3.831864 70.454335 34.828484 58.922967 -60.221575 49.851062 -35.796041 0.108819 0.586586 45.503811 -14.660783 -60.989208 12.669100 7.125000 0.000000 0.000000 89.421700 76.611800 103.174300 
0.933484 18.466086 8.532273 -11.719490 -0.999927 13.815118 7.731529 4.462331 0.276339 -12.900214 -28.401350 1.788658 -3.263249 -0.842894 1.430492 -11.258798 34.770533 -12.625420 0.047500 1.406100 3.867000 1.424166 -4.543900 2.206715 19.654272 27.572803 -4.072693 3.500072 -1.330611 4.156483 9.140314 -27.952859 -4.950258 -0.038600 -1.267400 3.485000 -5.021567 2.897838 4.129733 35.724850 3.592675 1.037918 -13.473925 -1.912352 -17.539786 -16.325308 -9.603755 -21.166175 11.990884 -11.767673 28.652528 2.127500 -4.408700 9.015700 -8.168130 -7.394498 -0.133338 -86.931397 -20.294603 49.868883 48.466582 -44.985989 -27.923465 -0.879992 0.825293 34.604795 40.782906 -16.045608 -13.919700 -7.125000 0.000000 0.000000 9.253500 9.117400 -7.775100 6.462155 9.587890 3.689330 70.096006 32.389913 58.760633 -63.555797 50.914129 -38.884471 -0.083617 0.508496 46.987478 -20.810832 -60.781832 18.071200 7.125000 0.000000 0.000000 95.172300 78.463500 107.005500 
0.922127 18.472501 8.547416 -10.860375 -0.896076 14.112272 7.726378 4.431607 0.225226 -13.829808 -29.024511 1.799466 -3.287421 -0.834386 1.372107 -11.284840 34.989302 -12.854940 0.047700 1.409000 3.875000 1.418301 -4.482985 2.110535 18.512778 27.880566 -4.291325 3.505073 -1.326030 4.099042 9.370594 -28.404366 -5.396487 -0.054600 -1.507900 4.147600 -6.091096 2.703029 3.810837 35.403794 3.475054 0.675866 -12.824739 -1.838204 -17.372131 -16.268351 -9.531732 -21.230980 11.745901 -11.639272 28.927961 2.092600 -4.367600 9.058600 -8.255939 -7.342014 -0.093948 -86.996131 -20.093587 49.788446 48.409584 -44.948037 -27.877469 -0.881518 0.817750 34.648507 40.660852 -16.015702 -13.830300 -7.125000 0.000000 0.000000 9.182300 9.198500 -7.698600 6.610943 9.551686 3.599004 69.902274 29.871106 58.724242 -66.489977 51.811595 -41.649003 -0.254711 0.457144 47.998297 -26.585099 -60.467515 23.187600 7.125000 0.000000 0.000000 103.013300 80.047200 113.041800 
0.916027 18.475445 8.558668 -10.436864 -0.736579 14.253414 7.732708 4.422250 0.200501 -14.320105 -29.459502 1.874789 -3.299027 -0.844838 1.298629 -11.335863 35.192041 -12.877087 0.042500 1.330200 3.657800 1.414308 -4.440019 2.070294 17.952384 27.853054 -4.487279 3.502711 -1.352444 4.143836 9.463940 -28.567756 -5.590524 -0.063000 -1.619100 4.454200 -6.636356 2.549996 3.569105 35.307606 3.342381 0.570674 -12.506282 -1.830486 -17.273602 -16.233310 -9.438463 -21.170707 11.625234 -11.500819 28.935064 2.081500 -4.314500 9.035700 -8.301274 -7.321944 -0.082770 -86.988354 -19.923072 49.699746 48.321463 -44.906803 -27.800095 -0.875821 0.809680 34.699025 40.431746 -15.911456 -13.635200 -7.125000 0.000000 0.000000 9.052500 9.392600 -7.551200 6.674925 9.530811 3.526190 69.196438 28.372197 59.568540 -68.221904 52.300908 -43.288950 -0.335190 0.398617 47.673122 -31.918618 -60.877053 28.211100 7.125000 0.000000 0.000000 116.539900 80.748300 125.198000 
0.914450 18.474604 8.565713 -10.437460 -0.621136 14.156369 7.739670 4.441299 0.217615 -14.410885 -29.607046 2.095776 -3.305863 -0.884554 1.216772 -11.366373 35.270942 -12.889101 0.042100 1.323700 3.640000 1.412868 -4.438655 2.099595 17.998667 27.610518 -4.515771 3.497000 -1.390372 4.253222 9.434407 -28.485394 -5.535677 -0.058000 -1.553800 4.274100 -6.684269 2.502924 3.480020 35.360326 3.225891 0.809518 -12.468498 -1.856987 -17.343286 -16.321990 -9.410239 -21.201116 11.748217 -11.477399 28.988647 2.124700 -4.288000 9.066100 -8.313667 -7.297292 -0.089538 -87.000788 -19.819068 49.692910 48.142248 -44.827065 -27.635497 -0.871295 0.812164 34.720355 40.380021 -15.808004 -13.533500 -7.125000 0.000000 0.000000 9.036800 9.526400 -7.513200 6.704032 9.487326 3.410715 69.280987 26.350358 59.789769 -69.808883 52.788898 -44.801603 -0.430152 0.381516 48.224464 -34.932009 -60.592993 30.937800 7.125000 0.000000 0.000000 123.260900 81.202500 130.981300 
0.911506 18.473237 8.568973 -10.482346 -0.506868 14.139739 7.744531 4.440057 0.204182 -14.329233 -29.568513 2.068189 -3.302649 -0.884734 1.211853 -11.335762 35.183565 -12.801745 0.042400 1.329500 3.656000 1.414654 -4.433292 2.088260 18.094167 27.576147 -4.508357 3.494365 -1.420926 4.328938 9.453522 -28.546708 -5.583424 -0.051600 -1.465400 4.030400 -6.701921 2.507982 3.509768 35.410216 3.251413 0.708157 -12.454717 -1.868433 -17.344360 -16.535653 -9.430460 -21.250189 11.990066 -11.533291 29.213045 2.202900 -4.285100 9.158200 -8.328259 -7.270908 -0.061323 -87.060077 -19.682134 49.760484 47.974692 -44.743759 -27.482684 -0.866967 0.818414 34.658883 40.360362 -15.829841 -13.551000 -7.125000 0.000000 0.000000 9.018000 9.490200 -7.503800 6.752571 9.444096 3.316642 69.750632 24.041933 59.700042 -70.849302 53.168193 -45.807767 -0.514051 0.378948 49.005317 -37.166848 -59.944991 32.851600 7.125000 0.000000 0.000000 127.566300 81.774300 134.407100 
0.911716 18.471344 8.569183 -10.566887 -0.219705 14.199702 7.747736 4.420961 0.170284 -14.079297 -29.507250 1.769178 -3.283859 -0.827752 1.309620 -11.258745 34.964593 -12.501688 0.037600 1.251300 3.440500 1.421507 -4.415943 2.054964 18.208337 27.612576 -4.516399 3.500741 -1.433101 4.355731 9.524449 -28.740933 -5.855434 -0.054700 -1.509500 4.151800 -6.574095 2.477427 3.558518 35.473167 3.280120 0.471931 -12.503810 -1.916981 -17.318688 -16.720477 -9.467530 -21.347950 12.098356 -11.558343 29.389815 2.248300 -4.283200 9.244600 -8.340406 -7.249631 -0.022499 -87.138195 -19.575928 49.846001 47.866234 -44.685470 -27.384928 -0.859875 0.825470 34.606547 40.301812 -15.935737 -13.618500 -7.125000 0.000000 0.000000 8.956900 9.357400 -7.475800 6.786277 9.410069 3.231796 70.271705 21.961826 59.629368 -70.861416 53.314167 -45.848977 -0.569686 0.355808 49.510954 -40.654888 -59.056212 35.942500 7.125000 0.000000 0.000000 136.488800 82.424800 141.968600 
